<svg width="500" height="500" viewBox="0 0 500 500" fill="none" xmlns="http://www.w3.org/2000/svg">
<circle cx="250" cy="250" r="250" fill="#353D51"/>
<path d="M354.833 431.399C335.272 442.125 303.557 442.125 283.996 431.399C264.434 420.676 264.434 403.286 283.996 392.56C303.557 381.837 335.271 381.837 354.833 392.56C374.395 403.286 374.395 420.676 354.833 431.399Z" fill="#5A6581"/>
<path d="M404.61 358.507C389.519 366.782 365.051 366.782 349.96 358.507C334.869 350.234 334.869 336.819 349.96 328.543C365.051 320.27 389.519 320.27 404.61 328.543C419.702 336.819 419.702 350.234 404.61 358.507Z" fill="#5A6581"/>
<path d="M86.8818 402.912L86.1609 402.496C85.0078 401.83 84.0732 400.211 84.0732 398.88V155.492C84.0732 154.161 85.0078 152.542 86.1609 151.877L242.987 61.3407C244.14 60.6749 246.01 60.6749 247.163 61.3407L247.883 61.7567C249.037 62.4225 249.971 64.0409 249.971 65.3725V308.76C249.971 310.091 249.037 311.71 247.883 312.376L91.057 402.912C89.904 403.577 88.0339 403.577 86.8818 402.912Z" fill="#27DEBF"/>
<path opacity="0.4" d="M249.95 65.0372C249.807 63.9545 248.933 63.5613 247.883 64.1625L91.0521 154.706C90.4727 155.034 89.9589 155.613 89.5761 156.259L84.6885 153.438C85.0598 152.782 85.5851 152.214 86.1645 151.875L242.985 61.3416C244.144 60.6749 246.014 60.6749 247.161 61.3416L247.883 61.7576C248.934 62.3702 249.819 63.7807 249.95 65.0372Z" fill="white"/>
<path opacity="0.1" d="M90.7019 403.076C89.5536 403.568 87.9247 403.513 86.8856 402.911L86.1534 402.495C85.0051 401.829 84.0762 400.21 84.0762 398.877V155.493C84.0762 154.826 84.306 154.083 84.6888 153.438L89.5764 156.259C89.205 156.915 88.9638 157.658 88.9638 158.314V401.708C88.9638 402.901 89.7179 403.458 90.7019 403.076Z" fill="black"/>
<path d="M107.459 314.886L106.738 314.47C105.585 313.805 104.65 312.185 104.65 310.854V267.108C104.65 265.777 105.585 264.158 106.738 263.492L249.118 181.213C250.271 180.547 252.14 180.547 253.293 181.213L254.014 181.629C255.167 182.295 256.102 183.913 256.102 185.245V228.991C256.102 230.323 255.167 231.941 254.014 232.607L111.634 314.886C110.481 315.552 108.612 315.552 107.459 314.886Z" fill="#EBEBEB"/>
<path d="M256.083 184.91C255.94 183.827 255.066 183.434 254.016 184.035L111.631 266.323C111.052 266.65 110.538 267.231 110.155 267.876L105.268 265.055C105.64 264.398 106.164 263.83 106.744 263.491L249.118 181.214C250.277 180.547 252.147 180.547 253.294 181.214L254.016 181.629C255.066 182.242 255.952 183.652 256.083 184.91Z" fill="#FAFAFA"/>
<path d="M111.28 315.051C110.132 315.543 108.503 315.488 107.464 314.887L106.731 314.472C105.583 313.805 104.654 312.186 104.654 310.853V267.11C104.654 266.444 104.884 265.7 105.267 265.055L110.155 267.876C109.783 268.532 109.542 269.275 109.542 269.931V313.684C109.542 314.876 110.296 315.434 111.28 315.051Z" fill="#E0E0E0"/>
<path d="M131.767 263.386C139.888 258.697 146.471 262.345 146.47 271.535C146.469 280.723 139.879 291.897 131.75 296.491C123.621 301.086 117.031 297.434 117.035 288.34C117.039 279.245 123.647 268.074 131.767 263.386Z" fill="#27DEBF"/>
<path d="M107.459 374.171L106.738 373.755C105.585 373.089 104.65 371.47 104.65 370.139V326.393C104.65 325.061 105.585 323.443 106.738 322.777L249.118 240.497C250.271 239.832 252.14 239.832 253.293 240.497L254.014 240.913C255.167 241.579 256.102 243.198 256.102 244.529V288.276C256.102 289.607 255.167 291.226 254.014 291.891L111.634 374.171C110.481 374.837 108.612 374.837 107.459 374.171Z" fill="#EBEBEB"/>
<path d="M256.083 244.194C255.94 243.111 255.066 242.718 254.016 243.319L111.631 325.607C111.052 325.935 110.538 326.515 110.155 327.16L105.268 324.339C105.64 323.683 106.164 323.115 106.744 322.776L249.118 240.499C250.277 239.832 252.147 239.832 253.294 240.499L254.016 240.914C255.066 241.526 255.952 242.937 256.083 244.194Z" fill="#FAFAFA"/>
<path d="M111.28 374.335C110.132 374.827 108.503 374.772 107.464 374.171L106.731 373.755C105.583 373.088 104.654 371.47 104.654 370.136V326.394C104.654 325.727 104.884 324.983 105.267 324.338L110.155 327.159C109.783 327.816 109.542 328.558 109.542 329.215V372.968C109.542 374.161 110.296 374.718 111.28 374.335Z" fill="#E0E0E0"/>
<path d="M131.767 322.671C139.888 317.982 146.471 321.63 146.47 330.819C146.469 340.007 139.879 351.181 131.75 355.775C123.621 360.371 117.031 356.719 117.035 347.624C117.039 338.529 123.647 327.359 131.767 322.671Z" fill="#27DEBF"/>
<path d="M107.459 215.743L106.738 215.327C105.585 214.661 104.65 213.042 104.65 211.711V167.965C104.65 166.633 105.585 165.015 106.738 164.349L249.118 82.0697C250.271 81.4039 252.14 81.4039 253.293 82.0697L254.014 82.4857C255.167 83.1515 256.102 84.7699 256.102 86.1015V129.848C256.102 131.179 255.167 132.798 254.014 133.464L111.634 215.743C110.481 216.409 108.612 216.409 107.459 215.743Z" fill="#EBEBEB"/>
<path d="M256.083 85.7663C255.94 84.6835 255.066 84.2903 254.016 84.8915L111.631 167.179C111.052 167.507 110.538 168.086 110.155 168.732L105.268 165.911C105.64 165.255 106.164 164.687 106.744 164.348L249.118 82.0706C250.277 81.4039 252.147 81.4039 253.294 82.0706L254.016 82.4866C255.066 83.0983 255.952 84.5087 256.083 85.7663Z" fill="#FAFAFA"/>
<path d="M111.28 215.907C110.132 216.399 108.503 216.345 107.464 215.743L106.731 215.328C105.583 214.661 104.654 213.043 104.654 211.709V167.967C104.654 167.3 104.884 166.556 105.267 165.911L110.155 168.732C109.783 169.389 109.542 170.131 109.542 170.788V214.541C109.542 215.733 110.296 216.29 111.28 215.907Z" fill="#E0E0E0"/>
<path d="M131.767 164.243C139.888 159.555 146.471 163.202 146.47 172.391C146.469 181.579 139.879 192.754 131.75 197.348C123.621 201.943 117.031 198.291 117.035 189.197C117.039 180.101 123.647 168.931 131.767 164.243Z" fill="#27DEBF"/>
<path d="M117.466 271.285L116.745 270.869C115.592 270.203 114.657 268.584 114.657 267.253V223.507C114.657 222.175 115.592 220.557 116.745 219.891L259.125 137.611C260.278 136.946 262.147 136.946 263.3 137.611L264.021 138.027C265.174 138.693 266.109 140.313 266.109 141.643V185.39C266.109 186.721 265.174 188.34 264.021 189.005L121.641 271.285C120.488 271.951 118.619 271.951 117.466 271.285Z" fill="#37474F"/>
<path d="M266.089 141.308C265.946 140.225 265.071 139.832 264.022 140.433L121.637 222.721C121.058 223.049 120.544 223.629 120.161 224.274L115.273 221.453C115.645 220.797 116.17 220.229 116.749 219.89L259.124 137.612C260.283 136.946 262.153 136.946 263.3 137.612L264.022 138.028C265.071 138.64 265.958 140.05 266.089 141.308Z" fill="#455A64"/>
<path d="M121.287 271.449C120.139 271.941 118.51 271.886 117.472 271.285L116.739 270.87C115.591 270.203 114.662 268.585 114.662 267.251V223.508C114.662 222.842 114.892 222.098 115.275 221.453L120.162 224.274C119.791 224.93 119.55 225.673 119.55 226.329V270.082C119.548 271.274 120.303 271.832 121.287 271.449Z" fill="#263238"/>
<path d="M141.775 219.784C149.896 215.095 156.479 218.743 156.478 227.932C156.477 237.121 149.886 248.295 141.758 252.889C133.629 257.484 127.039 253.832 127.043 244.738C127.048 235.643 133.654 224.472 141.775 219.784Z" fill="#F5F5F5"/>
<path d="M142.067 246.215C141.375 246.614 140.717 246.648 140.263 246.304L133.804 241.418C132.941 240.767 133.049 238.965 134.047 237.393C135.042 235.817 136.552 235.077 137.411 235.73L141.913 239.134L154.414 212.266C155.196 210.587 156.688 209.464 157.749 209.751C158.812 210.037 159.039 211.631 158.26 213.307L143.989 243.98C143.559 244.904 142.886 245.706 142.161 246.159C142.13 246.178 142.098 246.197 142.067 246.215Z" fill="#27DEBF"/>
<path d="M266.073 206.275L261.944 203.892V203.902C260.148 202.871 257.954 203.891 256.793 204.604L254.217 203.117C251.09 201.229 246.745 205.178 245.772 206.126L244.658 205.483L244.659 205.485C241.344 203.486 235.321 208.834 235.321 208.834V188.934L237.937 187.666L233.774 185.259C233.771 185.257 233.768 185.255 233.764 185.253L233.736 185.236L233.735 185.239C232.778 184.706 231.469 184.791 230.023 185.626C227.097 187.316 224.725 191.425 224.725 194.803V240.933C220.917 238.109 216.867 236.375 213.315 237.007C210.112 237.577 207.251 240.305 206.42 241.769C204.667 244.858 207.558 246.796 211.283 251.056C214.973 255.278 218.23 260.362 221.593 263.498C224.956 266.636 227.393 267.451 227.393 267.451V273.465L231.485 275.827L258.526 255.49V249.477C258.526 249.477 262.39 234.075 263.624 227.637C264.812 221.438 265.904 211.556 263.863 206.425L266.072 206.275L266.073 206.275Z" fill="#27DEBF"/>
<path opacity="0.4" d="M266.073 206.275L261.944 203.892V203.902C260.148 202.871 257.954 203.891 256.793 204.604L254.217 203.117C251.09 201.229 246.745 205.178 245.772 206.126L244.658 205.483L244.659 205.485C241.344 203.486 235.321 208.834 235.321 208.834V188.934L237.937 187.666L233.774 185.259C233.771 185.257 233.768 185.255 233.764 185.253L233.736 185.236L233.735 185.239C232.778 184.706 231.469 184.791 230.023 185.626C227.097 187.316 224.725 191.425 224.725 194.803V240.933C220.917 238.109 216.867 236.375 213.315 237.007C210.112 237.577 207.251 240.305 206.42 241.769C204.667 244.858 207.558 246.796 211.283 251.056C214.973 255.278 218.23 260.362 221.593 263.498C224.956 266.636 227.393 267.451 227.393 267.451V273.465L231.485 275.827L258.526 255.49V249.477C258.526 249.477 262.39 234.075 263.624 227.637C264.812 221.438 265.904 211.556 263.863 206.425L266.072 206.275L266.073 206.275Z" fill="white"/>
<path d="M235.571 259.295L215.114 247.485L206.155 242.312C205.015 245.099 207.779 247.053 211.281 251.058C214.972 255.28 218.229 260.364 221.591 263.5C224.954 266.638 227.391 267.453 227.391 267.453V273.467L231.483 275.829L237.457 271.336C236.684 266.225 235.571 259.295 235.571 259.295Z" fill="#27DEBF"/>
<path d="M228.817 197.168L224.726 194.805V243.192L228.817 243.298V197.168Z" fill="#27DEBF"/>
<path d="M260.905 209.383L264.074 207.044C264.006 206.836 263.941 206.623 263.864 206.428L265.015 206.349L262.474 206.233L258.224 203.893C257.672 204.109 257.174 204.372 256.794 204.605L258.121 205.377L260.905 209.383Z" fill="#27DEBF"/>
<path d="M249.664 208.689L252.642 206.423L248.537 203.94C247.235 204.755 246.19 205.718 245.771 206.127L248.621 207.775L249.664 208.689Z" fill="#27DEBF"/>
<path d="M243.455 208.47L239.396 206.095L239.413 206.057V211.198L244.144 209.462L243.455 208.47Z" fill="#27DEBF"/>
<g opacity="0.15">
<path d="M235.571 259.295L215.114 247.485L206.155 242.312C205.015 245.099 207.779 247.053 211.281 251.058C214.972 255.28 218.229 260.364 221.591 263.5C224.954 266.638 227.391 267.453 227.391 267.453V273.467L231.483 275.829L237.457 271.336C236.684 266.225 235.571 259.295 235.571 259.295Z" fill="black"/>
<path d="M228.817 197.168L224.726 194.805V243.192L228.817 243.298V197.168Z" fill="black"/>
<path d="M260.905 209.383L264.074 207.044C264.006 206.836 263.941 206.623 263.864 206.428L265.015 206.349L262.474 206.233L258.224 203.893C257.672 204.109 257.174 204.372 256.794 204.605L258.121 205.377L260.905 209.383Z" fill="black"/>
<path d="M249.664 208.689L252.642 206.423L248.537 203.94C247.235 204.755 246.19 205.718 245.771 206.127L248.621 207.775L249.664 208.689Z" fill="black"/>
<path d="M243.455 208.47L239.396 206.095L239.413 206.057V211.198L244.144 209.462L243.455 208.47Z" fill="black"/>
</g>
<path d="M231.487 275.829V269.816C231.487 269.816 229.05 268.999 225.687 265.863C222.323 262.726 219.068 257.641 215.377 253.42C211.653 249.161 208.76 247.223 210.514 244.133C211.345 242.669 214.206 239.94 217.409 239.371C220.962 238.74 225.011 240.473 228.819 243.298V197.167C228.819 193.788 231.191 189.68 234.117 187.99C237.043 186.301 239.415 187.67 239.415 191.05V211.198C239.415 211.198 246.716 204.714 249.666 208.691C249.666 208.691 256.839 201.177 260.078 207.524C260.078 207.524 265.344 203.271 267.719 208.207C270.093 213.143 268.952 223.567 267.719 230.003C266.485 236.44 262.621 251.843 262.621 251.843V257.856L231.487 275.829Z" fill="#27DEBF"/>
<path d="M239.417 219.849C239.417 219.849 240.082 210.656 243.459 208.47C243.458 208.47 243.411 208.484 243.339 208.505C241.188 209.627 239.417 211.198 239.417 211.198V211.024C239.38 211.14 239.417 211.198 239.417 211.198V219.849Z" fill="#455A64"/>
<path d="M249.668 208.689V217.1C249.668 217.1 250.601 208.452 252.539 206.362C250.888 207.415 249.676 208.683 249.668 208.689Z" fill="#455A64"/>
<path d="M260.08 207.522V215.963C260.08 215.963 260.594 207.459 262.425 206.205C261.093 206.706 260.087 207.517 260.08 207.522Z" fill="#455A64"/>
<path d="M229.997 179.817C229.339 180.196 228.807 179.971 228.807 179.314V172.64C228.807 171.983 229.339 171.142 229.997 170.763C230.654 170.383 231.187 170.609 231.187 171.266V177.94C231.187 178.598 230.654 179.438 229.997 179.817Z" fill="#EBEBEB"/>
<path d="M220.025 190.343C219.561 191.147 218.806 191.582 218.342 191.314L214.48 189.084C214.016 188.816 214.016 187.946 214.48 187.141C214.945 186.337 215.699 185.902 216.163 186.169L220.025 188.399C220.49 188.667 220.49 189.537 220.025 190.343Z" fill="#EBEBEB"/>
<path d="M215.896 204.144V204.335C215.896 205.041 215.323 205.944 214.618 206.351L209.334 209.402C208.628 209.81 208.056 209.567 208.056 208.862V208.671C208.056 207.965 208.628 207.062 209.334 206.653L214.618 203.603C215.324 203.196 215.896 203.438 215.896 204.144Z" fill="#EBEBEB"/>
<path d="M244.096 188.054V187.863C244.096 187.157 244.668 186.254 245.374 185.845L250.658 182.795C251.363 182.387 251.936 182.629 251.936 183.335V183.526C251.936 184.232 251.363 185.135 250.658 185.543L245.374 188.594C244.668 189.002 244.096 188.759 244.096 188.054Z" fill="#EBEBEB"/>
<path d="M239.967 178.83C239.503 178.561 239.503 177.691 239.967 176.887L243.829 170.198C244.294 169.394 245.047 168.959 245.512 169.226C245.977 169.494 245.977 170.364 245.512 171.17L241.65 177.858C241.186 178.664 240.433 179.099 239.967 178.83Z" fill="#EBEBEB"/>
<path d="M390.217 335.367V334.286C389.79 335.554 387.814 341.012 384.814 343.747C382.43 345.921 379.178 348.433 378.351 350.857C377.491 353.379 382.877 354.225 385.104 353.831C387.692 353.373 391.04 351.905 392.862 349.665C394.143 348.091 394.959 346.225 395.875 344.987C396.789 343.75 398.899 342.367 399.394 340.935C399.665 340.147 399.342 338.423 398.96 336.967C398.61 335.631 398.23 334.162 397.774 334.287C397.773 334.45 397.774 335.111 397.774 335.111C397.225 335.718 395.707 336.322 393.996 336.388C392.89 336.43 390.208 336.21 390.217 335.367Z" fill="#263238"/>
<path d="M382.658 345.66C383.397 345 384.141 344.355 384.816 343.739C386.911 341.828 388.507 338.588 389.425 336.376C389.948 335.113 390.218 333.766 390.218 332.399V328.092H397.775V335.103V335.104V335.291L397.737 335.31C397.374 336.881 393.906 341.058 391.935 343.782C390.615 345.609 388.105 347.932 385.105 348.332C382.263 348.711 380.81 347.815 382.658 345.66Z" fill="#FFA8A7"/>
<path d="M360.737 327.916V326.836C360.311 328.104 358.333 333.561 355.335 336.296C352.951 338.471 349.699 340.983 348.872 343.407C348.011 345.928 353.397 346.775 355.625 346.38C358.213 345.923 361.561 344.453 363.383 342.215C364.665 340.641 365.481 338.774 366.395 337.536C367.31 336.298 369.419 334.915 369.914 333.483C370.186 332.696 369.863 330.972 369.481 329.516C369.131 328.18 368.751 326.71 368.295 326.836C368.294 326.998 368.295 327.659 368.295 327.659C367.746 328.267 366.228 328.871 364.516 328.937C363.411 328.979 360.729 328.76 360.737 327.916Z" fill="#263238"/>
<path d="M353.177 338.21C353.916 337.55 354.66 336.905 355.335 336.289C357.43 334.378 359.026 331.137 359.944 328.925C360.467 327.663 360.737 326.315 360.737 324.949V320.641H368.294V327.653V327.654V327.841L368.256 327.86C367.893 329.431 364.425 333.608 362.454 336.332C361.133 338.158 358.624 340.482 355.624 340.881C352.782 341.26 351.33 340.365 353.177 338.21Z" fill="#FFA8A7"/>
<path d="M396.272 217.911C402.131 230.709 396.06 275.788 396.06 275.788C396.236 277.865 398.611 281.952 399.496 291.091C400.541 301.892 397.855 329.008 397.855 329.008C397.855 329.008 394.356 331.296 390.217 329.312C390.217 329.312 383.014 288.472 381.66 277.735C380.477 268.364 378.209 247.759 378.209 247.759L371.761 277.684C371.761 277.684 373.415 282.934 373.803 286.933C374.415 293.249 368.295 322.656 368.295 322.656C368.295 322.656 365.687 323.612 360.738 322.884C360.738 322.884 358.573 283.86 358.002 276.252C357.044 263.474 360.438 223.605 362.782 216.041L396.272 217.911Z" fill="#37474F"/>
<path d="M378.208 247.757L376.306 235.872C376.306 235.872 368.258 234.205 364.608 230.773C364.608 230.773 368.438 235.536 374.125 237.097L376.261 246.248L372.527 273.956L378.208 247.757Z" fill="#263238"/>
<path d="M373.428 173.103C373.428 173.103 367.753 172.27 363.813 177.411C360.787 181.36 349.212 196.433 349.212 196.433C349.212 196.433 332.15 187.894 331.311 186.883C330.471 185.87 330.943 183.823 331.174 182.697C331.406 181.57 331.787 179.069 332.037 178.365C332.476 177.138 330.66 177.469 329.591 178.616C328.496 179.79 328.046 182.004 327.512 182.39C326.979 182.776 322.92 178.107 320.949 175.854C318.979 173.601 318.055 172.024 316.734 172.954C315.783 173.624 316.394 174.961 317.806 176.892C319.218 178.822 319.424 179.03 319.63 179.449C319.799 179.794 319.278 180.071 319.072 180.255C318.69 180.597 318.01 181.157 317.963 181.692C317.937 181.984 317.99 182.285 317.909 182.567C317.725 183.209 316.93 183.511 316.706 184.14C316.544 184.595 316.723 185.105 316.631 185.579C316.572 185.885 316.403 186.162 316.349 186.468C316.242 187.071 316.587 187.659 316.98 188.126C318.364 189.772 320.256 190.402 322.07 191.406C323.579 192.241 325.136 192.607 326.873 193.378C328.61 194.15 348.766 208.123 351.955 206.362C355.143 204.602 371.614 185.442 371.614 185.442C376.367 177.571 373.428 173.103 373.428 173.103Z" fill="#FFA8A7"/>
<path d="M385.936 173.452C393.448 173.969 393.975 177.597 395.855 181.564C397.286 184.584 397.303 188.087 396.21 191.246L390.976 206.39C390.976 206.39 393.427 212.314 396.272 217.912C383.135 225.244 366.733 221.39 362.782 216.04C362.615 214.905 363.631 206.033 364.256 200.237C361.942 194.433 361.331 190.754 362.308 186.918C364.12 179.797 371.154 172.858 374.266 173.111L385.936 173.452Z" fill="#E3A82B"/>
<path d="M378.715 167.227H381.63C390.109 167.227 396.983 160.353 396.983 151.873C396.983 143.348 390.072 136.436 381.546 136.436H378.797C370.272 136.436 363.36 143.348 363.36 151.873C363.36 160.353 370.235 167.227 378.715 167.227Z" fill="#263238"/>
<path d="M405.204 175.318C400.194 175.318 396.133 171.257 396.133 166.247V146.823C401.143 146.823 405.204 150.884 405.204 155.894V175.318Z" fill="#263238"/>
<path d="M397.796 143.377L395.522 147.032C396.53 147.706 397.857 147.435 398.485 146.425C399.113 145.416 398.804 144.052 397.796 143.377Z" fill="#263238"/>
<path d="M368.886 143.235C367.11 144.284 364.915 148.75 365.132 158.113C365.315 166.049 367.887 168.008 369.179 168.573C370.471 169.138 372.961 168.794 375.383 168.391V173.153C375.383 173.153 372.037 177.04 372.247 179.224C372.458 181.408 377.079 181.923 380.211 179.79C383.342 177.657 385.35 174.41 385.35 174.41V162.898C385.35 162.898 386.985 165.081 389.658 163.306C392.332 161.53 392.434 157.135 390.879 155.557C389.324 153.979 385.974 154.479 385.349 156.659C385.349 156.659 381.487 156.8 376.345 153.975C371.203 151.15 369.228 146.312 368.886 143.235Z" fill="#FFA8A7"/>
<path d="M374.879 156.119C374.851 156.691 375.273 157.176 375.824 157.202C376.375 157.228 376.844 156.786 376.873 156.214C376.901 155.643 376.479 155.158 375.928 155.132C375.378 155.106 374.908 155.548 374.879 156.119Z" fill="#263238"/>
<path d="M373.725 162.847L371.407 163.586C371.6 164.249 372.274 164.621 372.915 164.417C373.554 164.212 373.918 163.51 373.725 162.847Z" fill="#F28F8F"/>
<path d="M366.698 153.055L368.717 151.656C368.349 151.08 367.598 150.926 367.041 151.312C366.482 151.699 366.329 152.479 366.698 153.055Z" fill="#263238"/>
<path d="M367.162 155.398C367.134 155.97 367.557 156.455 368.108 156.481C368.657 156.508 369.128 156.065 369.156 155.493C369.185 154.922 368.762 154.437 368.212 154.411C367.661 154.384 367.191 154.827 367.162 155.398Z" fill="#263238"/>
<path d="M372.036 154.827L371.878 160.834L368.717 159.855L372.036 154.827Z" fill="#F28F8F"/>
<path d="M375.381 168.392C377.933 168.057 383.183 166.549 384.001 164.473C384.001 164.473 383.729 165.777 382.16 167.122C380.592 168.466 375.381 169.981 375.381 169.981V168.392Z" fill="#F28F8F"/>
<path opacity="0.1" d="M382.576 219.332C386.891 218.31 389.628 213.945 388.489 209.66C388.445 209.498 388.4 209.358 388.355 209.247C387.51 207.216 385.694 207.483 385.694 207.483C387.397 206.354 388.579 204.593 388.978 202.589L390.575 193.098C390.575 193.098 390.931 191 390.17 188.495L395.45 182.388C395.45 182.388 395.829 182.652 396.425 183.066C397.248 185.711 397.125 188.597 396.21 191.246L390.975 206.39C390.975 206.39 393.427 212.314 396.271 217.912C386.59 223.315 375.14 222.641 368.203 219.771C373.683 220.621 378.76 220.235 382.576 219.332Z" fill="black"/>
<path d="M409.717 211.147C402.897 183.269 397.853 173.972 389.569 174.08C387.151 176.971 387.819 185.704 391.642 191.003C391.642 191.003 400.164 208.984 401.524 215.375C402.719 220.99 404.072 228.055 403.986 232.882C403.971 233.737 403.619 234.55 403.039 235.179C401.484 236.866 401.477 238.224 400.469 240.089C399.68 241.55 398.816 242.096 399.063 242.425C399.379 242.848 400.378 243.399 401.621 242.614C402.246 242.22 402.653 241.756 403.56 240.754C403.56 240.754 403.313 243.016 402.022 245.926C400.274 249.87 400.699 251.883 406.024 250.478C409.36 249.598 411.454 246.819 411.954 238.8C412.098 236.49 412.316 232.845 412.042 229.924C411.329 222.319 410.815 215.635 409.717 211.147Z" fill="#FFA8A7"/>
<path d="M342.051 290.845C342.781 263.713 340.606 257.211 333.383 252.241L330.585 267.963C330.585 267.963 333.875 286.489 333.522 292.659C333.211 298.08 332.684 304.861 331.402 309.244C331.175 310.02 330.65 310.673 329.965 311.102C328.125 312.252 327.383 313.434 325.998 314.884C324.914 316.02 323.989 316.302 324.133 316.664C324.316 317.129 325.09 317.88 326.42 317.474C327.089 317.27 327.952 316.747 329.03 316.058C329.03 316.058 328.26 318.319 326.357 320.651C323.779 323.813 323.665 325.756 328.872 325.801C332.135 325.831 334.739 323.817 337.194 316.627C337.902 314.556 339.009 311.286 339.488 308.553C340.735 301.437 341.933 295.212 342.051 290.845Z" fill="#B16668"/>
<path d="M327.304 250.18C330.751 249.68 335.439 250.403 338.466 255.817C341.493 261.231 342.235 270.545 342.58 279.807C342.58 279.807 336.566 284.836 329.353 282.362L327.304 250.18Z" fill="#27DEBF"/>
<path opacity="0.1" d="M327.304 250.18C330.751 249.68 335.439 250.403 338.466 255.817C341.493 261.231 342.235 270.545 342.58 279.807C342.58 279.807 336.566 284.836 329.353 282.362L327.304 250.18Z" fill="black"/>
<path d="M337.445 399.405C337.992 399.612 338.131 400.655 338.213 402.729C338.276 404.298 338.612 407.036 336.774 407.583C334.937 408.13 332.245 407.851 331.067 406.371C329.597 404.526 328.603 402.901 326.505 400.649C324.685 398.695 322.717 396.871 321.982 394.131C321.318 391.655 321.871 390.581 323.561 389.861C325.884 388.871 329.533 392.105 331.353 392.614C332.92 393.055 336.898 399.198 337.445 399.405Z" fill="#263238"/>
<path d="M337.444 397.486V400.033C337.444 400.033 334.797 402.066 331.011 400.206C330.9 399.961 330.343 396.565 330.343 396.565L337.444 397.486Z" fill="#B16668"/>
<path d="M316.827 414.077C316.827 414.077 317.558 416.291 317.952 418.228C318.264 419.766 318.713 422.339 318.174 423.497C317.635 424.655 315.533 425.402 312.273 425.377C310.162 425.361 306.873 426.794 304.62 428.051C302.294 429.35 297.454 429.866 294.993 429.578C292.094 429.238 289.09 427.556 288.62 426.354C288.151 425.154 288.774 423.907 295.609 420.994C295.672 420.968 305.11 417.899 308.417 414.249L316.827 414.077Z" fill="#263238"/>
<path d="M316.827 411.326C316.827 411.326 316.818 413.215 316.827 414.295C316.837 415.375 315.561 416.984 312.261 416.866C309.942 416.783 308.324 416.16 308.416 414.25V411.498L316.827 411.326Z" fill="#B16668"/>
<path d="M339.101 363.701C337.935 355.383 336.095 350.442 336.095 350.442C336.095 350.442 337.004 339.003 337.44 328.156C337.911 316.44 337.415 301.714 337.637 298.792C337.637 298.792 299.834 291.143 299.159 304.686C298.485 318.229 300.651 352.703 301.099 358.652C301.545 364.601 302.574 369.863 303.803 379.506C305.016 389.022 308.416 411.496 308.416 411.496C312.735 413.831 316.827 411.324 316.827 411.324C316.827 411.324 319.488 384.245 319.208 377.381C318.867 368.998 316.605 362.397 316.605 362.397C316.605 362.397 317.322 351.23 317.955 341.517C318.587 331.803 319.258 327.138 319.405 322.913L320.219 322.511C320.219 322.511 321.048 339.268 321.495 345.217C321.942 351.167 322.888 356.871 324.609 367.922C326.102 377.508 330.549 397.792 330.549 397.792C334.868 400.126 337.444 397.486 337.444 397.486C337.444 397.486 340.267 372.019 339.101 363.701Z" fill="#37474F"/>
<path d="M319.405 322.914C319.405 322.914 328.575 318.394 333.166 314.319C333.166 314.319 328.904 320.324 323.31 322.987C323.31 322.987 321.32 343.803 321.33 343.39L320.181 322.883L319.405 322.914Z" fill="#263238"/>
<path d="M311.242 245.89L313.479 258.202L324.601 257.39L322.265 243.433L311.242 245.89Z" fill="#B16668"/>
<path d="M336.347 256.491C335.246 253.143 331 249.5 326.75 250.29C318.942 251.74 312.749 253.29 308.138 254.937C304.248 256.327 300.703 259.69 300.381 272.488C300.381 272.488 299.077 302.325 299.054 308.095C308.824 311.962 318.986 311.842 324.602 310.615C336.295 308.06 337.704 303.21 337.704 303.21C337.704 303.21 337.855 281.755 337.505 272.488C337.208 264.615 337.103 258.79 336.347 256.491Z" fill="#27DEBF"/>
<path d="M302.662 230.915C302.662 230.915 299.842 235.412 300.184 235.839C300.527 236.266 302.684 236.611 302.684 236.611L302.662 230.915Z" fill="#B16668"/>
<path d="M310.492 218.475C304.611 219.855 302.964 222.49 302.619 231.89C302.258 241.71 303.328 244.772 304.646 246.063C305.536 246.934 310.374 246.987 312.798 246.26C315.83 245.35 322.673 242.75 325.792 237.744C329.46 231.853 330.281 223.964 326.14 220.829C320.313 216.416 312.886 217.913 310.492 218.475Z" fill="#B16668"/>
<path d="M311.367 246.564C313.363 244.959 313.184 243.925 313.184 243.925C311.753 245.261 306.456 246.406 304.648 246.063C305.385 246.785 308.828 246.944 311.367 246.564Z" fill="#9A4A4D"/>
<path d="M302.685 220.92C304.411 223.875 308.157 225.287 308.157 225.287C309.284 226.572 308.663 231.582 310.648 232.377C310.648 232.377 311.5 228.731 314.566 229.118C317.652 229.507 318.155 233.418 316.272 235.844C314.387 238.27 312.559 237.397 312.559 237.397C312.559 237.397 312.771 242.577 315.132 245.459C315.132 245.459 317.765 246.246 322.547 245.113C325.487 244.417 329.58 240.631 331.248 236.682C334.777 228.327 334.869 220.88 329.539 218.769C328.881 214.97 325.843 213.329 322.404 212.621C315.003 211.095 310.231 215.714 304.534 215.313C301.273 215.083 300.664 217.458 302.685 220.92Z" fill="#263238"/>
<path d="M329.658 220.043L333.147 217.88C332.549 216.917 331.283 216.619 330.32 217.218C329.357 217.814 329.061 219.079 329.658 220.043Z" fill="#263238"/>
<path d="M308.444 254.885C308.444 254.885 302.917 255.906 300.028 260.278C297.138 264.65 284.647 280.316 284.647 280.316C284.647 280.316 266.673 271.321 265.79 270.255C264.905 269.188 265.403 267.032 265.646 265.846C265.89 264.659 266.292 262.023 266.556 261.282C267.018 259.989 265.106 260.339 263.978 261.547C262.824 262.784 262.351 265.117 261.788 265.524C261.227 265.929 256.95 261.011 254.874 258.638C252.799 256.264 251.825 254.603 250.434 255.583C249.432 256.289 250.075 257.697 251.564 259.732C253.052 261.765 253.269 261.984 253.485 262.425C253.664 262.789 253.115 263.08 252.896 263.275C252.494 263.636 251.778 264.226 251.728 264.789C251.701 265.097 251.757 265.414 251.672 265.711C251.478 266.387 250.641 266.705 250.404 267.367C250.233 267.847 250.421 268.384 250.325 268.884C250.264 269.206 250.086 269.498 250.028 269.82C249.915 270.454 250.279 271.074 250.694 271.567C252.152 273.301 254.145 273.965 256.056 275.022C257.645 275.902 259.286 276.287 261.116 277.1C262.945 277.913 284.492 293.837 287.851 291.983C291.211 290.129 308.447 269.991 308.447 269.991C313.449 261.699 308.444 254.885 308.444 254.885Z" fill="#B16668"/>
<path d="M310.37 254.235C307.992 254.509 304.662 254.068 300.005 259.069C295.349 264.069 289.527 272.553 289.527 272.553C289.527 272.553 291.144 280.661 299.948 282.363C299.948 282.363 308.101 274.01 310.37 269.411C312.637 264.811 313.169 257.339 310.37 254.235Z" fill="#27DEBF"/>
<path opacity="0.1" d="M310.37 254.235C307.992 254.509 304.662 254.068 300.005 259.069C295.349 264.069 289.527 272.553 289.527 272.553C289.527 272.553 291.144 280.661 299.948 282.363C299.948 282.363 308.101 274.01 310.37 269.411C312.637 264.811 313.169 257.339 310.37 254.235Z" fill="black"/>
</svg>
