<svg width="350" height="64" viewBox="0 0 350 64" fill="none" xmlns="http://www.w3.org/2000/svg">
<path d="M136.402 18.7168C140.697 18.7168 143.973 19.8125 146.23 22.0039C148.51 24.1953 149.65 27.7038 149.65 32.5293V57H136.668V36.5469C136.668 33.6914 136.281 31.7103 135.506 30.6035C134.753 29.4746 133.624 28.9102 132.119 28.9102C130.016 28.9102 128.555 29.8288 127.736 31.666C126.939 33.5033 126.541 36.1042 126.541 39.4688V57H113.525V36.5469C113.525 34.7318 113.359 33.2708 113.027 32.1641C112.717 31.0352 112.242 30.2161 111.6 29.707C110.958 29.1758 110.15 28.9102 109.176 28.9102C107.693 28.9102 106.531 29.3639 105.689 30.2715C104.87 31.1569 104.295 32.4629 103.963 34.1895C103.631 35.916 103.465 38.0299 103.465 40.5312V57H90.4824V19.3809H100.277L102.17 24.0293H102.535C103.199 23.0111 104.051 22.1035 105.092 21.3066C106.154 20.5098 107.405 19.8789 108.844 19.4141C110.305 18.9492 111.965 18.7168 113.824 18.7168C116.591 18.7168 118.871 19.1816 120.664 20.1113C122.457 21.041 123.918 22.3249 125.047 23.9629H125.445C126.641 22.2806 128.179 20.9857 130.061 20.0781C131.942 19.1706 134.056 18.7168 136.402 18.7168Z" fill="#5B5FAE"/>
<path d="M182.023 18.7168C185.897 18.7168 189.062 19.8125 191.52 22.0039C193.977 24.1953 195.205 27.7038 195.205 32.5293V57H182.223V36.4805C182.223 33.9792 181.857 32.0977 181.127 30.8359C180.419 29.5521 179.268 28.9102 177.674 28.9102C175.217 28.9102 173.568 29.9173 172.727 31.9316C171.885 33.9238 171.465 36.7904 171.465 40.5312V57H158.482V19.3809H168.277L170.037 24.3613H170.535C171.332 23.166 172.284 22.1478 173.391 21.3066C174.497 20.4655 175.77 19.8236 177.209 19.3809C178.648 18.9382 180.253 18.7168 182.023 18.7168Z" fill="#5B5FAE"/>
<path d="M220.971 18.7168C224.623 18.7168 227.777 19.3587 230.434 20.6426C233.09 21.9043 235.137 23.8079 236.576 26.3535C238.015 28.8991 238.734 32.0866 238.734 35.916V41.6934H215.525C215.636 43.6634 216.367 45.2793 217.717 46.541C219.089 47.8027 221.104 48.4336 223.76 48.4336C226.106 48.4336 228.253 48.2012 230.201 47.7363C232.171 47.2715 234.197 46.5521 236.277 45.5781V54.9082C234.462 55.86 232.481 56.5573 230.334 57C228.187 57.4427 225.475 57.6641 222.199 57.6641C218.414 57.6641 215.027 56.9889 212.039 55.6387C209.051 54.2884 206.693 52.1966 204.967 49.3633C203.262 46.5299 202.41 42.8887 202.41 38.4395C202.41 33.9238 203.185 30.2161 204.734 27.3164C206.284 24.3945 208.453 22.2363 211.242 20.8418C214.031 19.4251 217.274 18.7168 220.971 18.7168ZM221.436 27.5488C219.908 27.5488 218.624 28.0358 217.584 29.0098C216.566 29.9616 215.968 31.4668 215.791 33.5254H226.947C226.925 32.4186 226.704 31.4115 226.283 30.5039C225.863 29.5964 225.243 28.877 224.424 28.3457C223.627 27.8145 222.631 27.5488 221.436 27.5488Z" fill="#5B5FAE"/>
<path d="M291.992 18.7168C296.286 18.7168 299.562 19.8125 301.82 22.0039C304.1 24.1953 305.24 27.7038 305.24 32.5293V57H292.258V36.5469C292.258 33.6914 291.87 31.7103 291.096 30.6035C290.343 29.4746 289.214 28.9102 287.709 28.9102C285.606 28.9102 284.145 29.8288 283.326 31.666C282.529 33.5033 282.131 36.1042 282.131 39.4688V57H269.115V36.5469C269.115 34.7318 268.949 33.2708 268.617 32.1641C268.307 31.0352 267.831 30.2161 267.189 29.707C266.548 29.1758 265.74 28.9102 264.766 28.9102C263.283 28.9102 262.12 29.3639 261.279 30.2715C260.46 31.1569 259.885 32.4629 259.553 34.1895C259.221 35.916 259.055 38.0299 259.055 40.5312V57H246.072V19.3809H255.867L257.76 24.0293H258.125C258.789 23.0111 259.641 22.1035 260.682 21.3066C261.744 20.5098 262.995 19.8789 264.434 19.4141C265.895 18.9492 267.555 18.7168 269.414 18.7168C272.181 18.7168 274.461 19.1816 276.254 20.1113C278.047 21.041 279.508 22.3249 280.637 23.9629H281.035C282.23 22.2806 283.769 20.9857 285.65 20.0781C287.532 19.1706 289.646 18.7168 291.992 18.7168Z" fill="#5B5FAE"/>
<path d="M349.998 38.1074C349.998 41.2507 349.566 44.0397 348.703 46.4746C347.84 48.9095 346.589 50.957 344.951 52.6172C343.313 54.2773 341.332 55.5391 339.008 56.4023C336.684 57.2435 334.061 57.6641 331.139 57.6641C328.416 57.6641 325.915 57.2435 323.635 56.4023C321.377 55.5391 319.407 54.2773 317.725 52.6172C316.042 50.957 314.736 48.9095 313.807 46.4746C312.899 44.0397 312.445 41.2507 312.445 38.1074C312.445 33.946 313.198 30.4264 314.703 27.5488C316.23 24.6712 318.4 22.4798 321.211 20.9746C324.044 19.4694 327.42 18.7168 331.338 18.7168C334.946 18.7168 338.156 19.4694 340.967 20.9746C343.778 22.4798 345.98 24.6712 347.574 27.5488C349.19 30.4264 349.998 33.946 349.998 38.1074ZM325.627 38.1074C325.627 40.2546 325.815 42.0697 326.191 43.5527C326.568 45.0137 327.165 46.1315 327.984 46.9062C328.826 47.6589 329.921 48.0352 331.271 48.0352C332.622 48.0352 333.695 47.6589 334.492 46.9062C335.289 46.1315 335.865 45.0137 336.219 43.5527C336.595 42.0697 336.783 40.2546 336.783 38.1074C336.783 35.9603 336.595 34.1673 336.219 32.7285C335.865 31.2897 335.278 30.2051 334.459 29.4746C333.662 28.7441 332.577 28.3789 331.205 28.3789C329.235 28.3789 327.807 29.1979 326.922 30.8359C326.059 32.474 325.627 34.8978 325.627 38.1074Z" fill="#5B5FAE"/>
<path d="M67.9997 50.3719H17.2529V0H54.9696L67.9997 12.9338V50.3719Z" fill="#5B5FAE"/>
<path d="M67.9979 12.9338H54.9678V0L67.9979 12.9338Z" fill="#E3A82B"/>
<path d="M62.2192 18.0151H23.0342V21.6402H62.2192V18.0151Z" fill="#242531"/>
<path d="M62.2192 27.5542H23.0342V31.1792H62.2192V27.5542Z" fill="#242531"/>
<path d="M47.7301 37.0938H23.0342V40.7188H47.7301V37.0938Z" fill="#333E48"/>
<path d="M50.7449 63.3701H0V13H37.7155L50.7449 25.9333V63.3701Z" fill="#1DA098"/>
<path d="M50.7472 25.9333H37.7178V13L50.7472 25.9333Z" fill="#E3A82B"/>
<path d="M44.9651 31.0142H5.78125V34.6391H44.9651V31.0142Z" fill="#242531"/>
<path d="M44.9651 40.5532H5.78125V44.1781H44.9651V40.5532Z" fill="#242531"/>
<path d="M30.4764 50.0913H5.78125V53.716H30.4764V50.0913Z" fill="#242531"/>
</svg>
