<svg width="256" height="239" viewBox="0 0 256 239" fill="none" xmlns="http://www.w3.org/2000/svg">
<path d="M256 189.635H64.9536V0H206.945L256 48.6919V189.635Z" fill="#656AC5"/>
<path d="M255.994 48.6919H206.939V0L255.994 48.6919Z" fill="#E3A82B"/>
<path d="M234.238 67.8213H86.7178V81.4684H234.238V67.8213Z" fill="#242531"/>
<path d="M234.238 103.734H86.7178V117.381H234.238V103.734Z" fill="#242531"/>
<path d="M179.69 139.647H86.7178V153.294H179.69V139.647Z" fill="#333E48"/>
<path d="M191.039 238.628H0V49H141.987L191.039 97.6899V238.628Z" fill="#1DA098"/>
<path d="M191.047 97.6899H141.996V49L191.047 97.6899Z" fill="#E3A82B"/>
<path d="M169.279 116.816H21.7637V130.463H169.279V116.816Z" fill="#242531"/>
<path d="M169.279 152.729H21.7637V166.376H169.279V152.729Z" fill="#242531"/>
<path d="M114.733 188.643H21.7637V202.288H114.733V188.643Z" fill="#242531"/>
</svg>
